<?xml version="1.0" encoding="UTF-8" standalone="no"?>
<!-- Created with Inkscape (http://www.inkscape.org/) -->

<svg
   width="55.014mm"
   height="33.334999mm"
   viewBox="0 0 55.014 33.334999"
   version="1.1"
   id="svg1663"
   xmlns="http://www.w3.org/2000/svg"
   xmlns:svg="http://www.w3.org/2000/svg">
  <defs
     id="defs1660" />
  <g
     id="layer1"
     transform="translate(-39.800748,-38.331029)">
    <g
       id="g900"
       transform="translate(3.1071635,3.1178104)">
      <path
         d="m 39.807748,62.365624 h 0.61595 v 3.07093 h -0.61595 z"
         style="fill:#4f4c4d;fill-opacity:1;fill-rule:nonzero;stroke:none;stroke-width:0.352778"
         id="path248" />
      <g
         id="g250"
         transform="matrix(0.35277777,0,0,-0.35277777,41.030899,63.170804)">
        <path
           d="m 0,0 h 1.583 v -0.873 h 0.025 c 0.524,0.736 1.235,1.023 2.108,1.023 1.521,0 2.182,-1.073 2.182,-2.519 v -4.054 h -1.67 v 3.43 c 0,0.786 -0.013,1.846 -1.085,1.846 -1.21,0 -1.472,-1.31 -1.472,-2.133 V -6.423 H 0 Z"
           style="fill:#4f4c4d;fill-opacity:1;fill-rule:nonzero;stroke:none"
           id="path252" />
      </g>
      <g
         id="g254"
         transform="matrix(0.35277777,0,0,-0.35277777,43.912388,63.601792)">
        <path
           d="M 0,0 H -1.234 V 1.222 H 0 V 2.506 L 1.671,3.043 V 1.222 H 3.155 V 0 H 1.671 v -2.994 c 0,-0.548 0.15,-1.059 0.786,-1.059 0.299,0 0.586,0.062 0.761,0.174 l 0.05,-1.322 C 2.918,-5.301 2.531,-5.351 2.033,-5.351 0.724,-5.351 0,-4.54 0,-3.268 Z"
           style="fill:#4f4c4d;fill-opacity:1;fill-rule:nonzero;stroke:none"
           id="path256" />
      </g>
      <g
         id="g258"
         transform="matrix(0.35277777,0,0,-0.35277777,46.851379,64.081359)">
        <path
           d="M 0,0 C -0.05,0.811 -0.424,1.509 -1.359,1.509 -2.295,1.509 -2.769,0.86 -2.844,0 Z m 1.122,-3.479 c -0.611,-0.337 -1.309,-0.512 -2.207,-0.512 -2.12,0 -3.354,1.222 -3.354,3.33 0,1.858 0.985,3.392 2.98,3.392 2.382,0 3.056,-1.634 3.056,-3.878 h -4.441 c 0.075,-1.036 0.799,-1.622 1.833,-1.622 0.812,0 1.51,0.3 2.133,0.649 z"
           style="fill:#4f4c4d;fill-opacity:1;fill-rule:nonzero;stroke:none"
           id="path260" />
      </g>
      <g
         id="g262"
         transform="matrix(0.35277777,0,0,-0.35277777,47.889745,63.170804)">
        <path
           d="m 0,0 h 1.484 v -1.459 h 0.025 c 0.075,0.599 0.762,1.609 1.759,1.609 0.162,0 0.336,0 0.511,-0.05 v -1.683 c -0.149,0.086 -0.449,0.137 -0.748,0.137 -1.36,0 -1.36,-1.697 -1.36,-2.619 V -6.423 H 0 Z"
           style="fill:#4f4c4d;fill-opacity:1;fill-rule:nonzero;stroke:none"
           id="path264" />
      </g>
      <g
         id="g266"
         transform="matrix(0.35277777,0,0,-0.35277777,49.588194,63.170804)">
        <path
           d="m 0,0 h 1.584 v -0.873 h 0.024 c 0.525,0.736 1.236,1.023 2.108,1.023 1.522,0 2.182,-1.073 2.182,-2.519 v -4.054 h -1.67 v 3.43 c 0,0.786 -0.012,1.846 -1.085,1.846 -1.21,0 -1.472,-1.31 -1.472,-2.133 V -6.423 H 0 Z"
           style="fill:#4f4c4d;fill-opacity:1;fill-rule:nonzero;stroke:none"
           id="path268" />
      </g>
      <g
         id="g270"
         transform="matrix(0.35277777,0,0,-0.35277777,53.697491,64.081359)">
        <path
           d="M 0,0 C -0.05,0.811 -0.425,1.509 -1.36,1.509 -2.295,1.509 -2.769,0.86 -2.844,0 Z m 1.122,-3.479 c -0.611,-0.337 -1.309,-0.512 -2.207,-0.512 -2.121,0 -3.355,1.222 -3.355,3.33 0,1.858 0.985,3.392 2.98,3.392 2.383,0 3.056,-1.634 3.056,-3.878 h -4.44 c 0.075,-1.036 0.798,-1.622 1.833,-1.622 0.812,0 1.509,0.3 2.133,0.649 z"
           style="fill:#4f4c4d;fill-opacity:1;fill-rule:nonzero;stroke:none"
           id="path272" />
      </g>
      <g
         id="g274"
         transform="matrix(0.35277777,0,0,-0.35277777,54.916373,63.601792)">
        <path
           d="M 0,0 H -1.235 V 1.222 H 0 V 2.506 L 1.671,3.043 V 1.222 H 3.155 V 0 H 1.671 v -2.994 c 0,-0.548 0.149,-1.059 0.786,-1.059 0.299,0 0.586,0.062 0.761,0.174 l 0.05,-1.322 C 2.918,-5.301 2.531,-5.351 2.032,-5.351 0.723,-5.351 0,-4.54 0,-3.268 Z"
           style="fill:#4f4c4d;fill-opacity:1;fill-rule:nonzero;stroke:none"
           id="path276" />
      </g>
      <path
         d="m 57.656892,62.365624 h 0.61595 v 3.07093 h -0.61595 z"
         style="fill:#4f4c4d;fill-opacity:1;fill-rule:nonzero;stroke:none;stroke-width:0.352778"
         id="path278" />
      <g
         id="g280"
         transform="matrix(0.35277777,0,0,-0.35277777,58.87962,63.170804)">
        <path
           d="m 0,0 h 1.583 v -0.873 h 0.025 c 0.524,0.736 1.236,1.023 2.108,1.023 1.521,0 2.182,-1.073 2.182,-2.519 V -6.423 H 4.227 v 3.43 c 0,0.786 -0.012,1.846 -1.084,1.846 -1.21,0 -1.472,-1.31 -1.472,-2.133 V -6.423 H 0 Z"
           style="fill:#4f4c4d;fill-opacity:1;fill-rule:nonzero;stroke:none"
           id="path282" />
      </g>
      <path
         d="m 61.580486,62.193821 h 0.589845 v 0.563033 h -0.589845 z m 0,0.976842 h 0.589845 v 2.265891 h -0.589845 z"
         style="fill:#4f4c4d;fill-opacity:1;fill-rule:nonzero;stroke:none;stroke-width:0.352778"
         id="path284" />
      <g
         id="g286"
         transform="matrix(0.35277777,0,0,-0.35277777,62.98373,63.601792)">
        <path
           d="M 0,0 H -1.234 V 1.222 H 0 V 2.506 L 1.671,3.043 V 1.222 H 3.155 V 0 H 1.671 v -2.994 c 0,-0.548 0.15,-1.059 0.785,-1.059 0.301,0 0.587,0.062 0.762,0.174 L 3.269,-5.201 C 2.919,-5.301 2.532,-5.351 2.033,-5.351 0.723,-5.351 0,-4.54 0,-3.268 Z"
           style="fill:#4f4c4d;fill-opacity:1;fill-rule:nonzero;stroke:none"
           id="path288" />
      </g>
      <path
         d="m 64.514892,62.193821 h 0.589844 v 0.563033 h -0.589844 z m 0,0.976842 h 0.589844 v 2.265891 h -0.589844 z"
         style="fill:#4f4c4d;fill-opacity:1;fill-rule:nonzero;stroke:none;stroke-width:0.352778"
         id="path290" />
      <g
         id="g292"
         transform="matrix(0.35277777,0,0,-0.35277777,66.516341,65.0582)">
        <path
           d="M 0,0 C 0.511,0 0.91,0.225 1.173,0.574 1.446,0.936 1.521,1.397 1.521,1.896 H 0.798 C 0.049,1.896 -1.061,1.771 -1.061,0.786 -1.061,0.237 -0.599,0 0,0 M -1.958,5.014 C -1.31,5.313 -0.437,5.5 0.274,5.5 2.232,5.5 3.043,4.689 3.043,2.794 V 1.971 C 3.043,1.322 3.056,0.835 3.067,0.362 3.08,-0.125 3.105,-0.574 3.142,-1.073 H 1.671 C 1.608,-0.736 1.608,-0.312 1.596,-0.112 H 1.571 c -0.386,-0.711 -1.222,-1.11 -1.983,-1.11 -1.135,0 -2.244,0.686 -2.244,1.908 0,0.96 0.462,1.522 1.096,1.833 0.636,0.313 1.459,0.375 2.159,0.375 h 0.922 c 0,1.035 -0.461,1.384 -1.446,1.384 -0.711,0 -1.422,-0.275 -1.983,-0.698 z"
           style="fill:#4f4c4d;fill-opacity:1;fill-rule:nonzero;stroke:none"
           id="path294" />
      </g>
      <g
         id="g296"
         transform="matrix(0.35277777,0,0,-0.35277777,68.364297,63.601792)">
        <path
           d="M 0,0 H -1.235 V 1.222 H 0 V 2.506 L 1.671,3.043 V 1.222 H 3.155 V 0 H 1.671 v -2.994 c 0,-0.548 0.15,-1.059 0.786,-1.059 0.299,0 0.586,0.062 0.76,0.174 l 0.05,-1.322 C 2.918,-5.301 2.532,-5.351 2.032,-5.351 0.724,-5.351 0,-4.54 0,-3.268 Z"
           style="fill:#4f4c4d;fill-opacity:1;fill-rule:nonzero;stroke:none"
           id="path298" />
      </g>
      <path
         d="m 69.895811,62.193821 h 0.589492 v 0.563033 h -0.589492 z m 0,0.976842 h 0.589492 v 2.265891 h -0.589492 z"
         style="fill:#4f4c4d;fill-opacity:1;fill-rule:nonzero;stroke:none;stroke-width:0.352778"
         id="path300" />
      <g
         id="g302"
         transform="matrix(0.35277777,0,0,-0.35277777,70.854061,63.170804)">
        <path
           d="M 0,0 H 1.796 L 3.393,-4.677 H 3.417 L 4.963,0 H 6.635 L 4.265,-6.423 H 2.382 Z"
           style="fill:#4f4c4d;fill-opacity:1;fill-rule:nonzero;stroke:none"
           id="path304" />
      </g>
      <g
         id="g306"
         transform="matrix(0.35277777,0,0,-0.35277777,74.972318,64.081359)">
        <path
           d="M 0,0 C -0.051,0.811 -0.424,1.509 -1.359,1.509 -2.295,1.509 -2.769,0.86 -2.844,0 Z m 1.122,-3.479 c -0.61,-0.337 -1.309,-0.512 -2.208,-0.512 -2.12,0 -3.354,1.222 -3.354,3.33 0,1.858 0.986,3.392 2.98,3.392 2.382,0 3.056,-1.634 3.056,-3.878 h -4.44 c 0.075,-1.036 0.798,-1.622 1.833,-1.622 0.812,0 1.51,0.3 2.133,0.649 z"
           style="fill:#4f4c4d;fill-opacity:1;fill-rule:nonzero;stroke:none"
           id="path308" />
      </g>
      <g
         id="g310"
         transform="matrix(0.35277777,0,0,-0.35277777,77.013208,64.899732)">
        <path
           d="m 0,0 c 0.237,-0.087 0.487,-0.149 0.836,-0.149 1.135,0 1.135,0.91 1.135,1.533 V 7.183 H 3.717 V 0.548 c 0,-0.922 -0.599,-2.219 -2.382,-2.219 -0.475,0 -0.848,0.037 -1.335,0.162 z"
           style="fill:#4f4c4d;fill-opacity:1;fill-rule:nonzero;stroke:none"
           id="path312" />
      </g>
      <g
         id="g314"
         transform="matrix(0.35277777,0,0,-0.35277777,79.723812,65.0582)">
        <path
           d="M 0,0 C 0.511,0 0.91,0.225 1.172,0.574 1.445,0.936 1.521,1.397 1.521,1.896 H 0.797 C 0.049,1.896 -1.061,1.771 -1.061,0.786 -1.061,0.237 -0.6,0 0,0 M -1.959,5.014 C -1.31,5.313 -0.437,5.5 0.273,5.5 2.231,5.5 3.043,4.689 3.043,2.794 V 1.971 C 3.043,1.322 3.055,0.835 3.066,0.362 3.08,-0.125 3.104,-0.574 3.143,-1.073 H 1.671 C 1.608,-0.736 1.608,-0.312 1.596,-0.112 H 1.57 c -0.386,-0.711 -1.221,-1.11 -1.982,-1.11 -1.135,0 -2.245,0.686 -2.245,1.908 0,0.96 0.462,1.522 1.097,1.833 0.637,0.313 1.459,0.375 2.158,0.375 h 0.923 c 0,1.035 -0.461,1.384 -1.447,1.384 -0.711,0 -1.422,-0.275 -1.983,-0.698 z"
           style="fill:#4f4c4d;fill-opacity:1;fill-rule:nonzero;stroke:none"
           id="path316" />
      </g>
      <g
         id="g318"
         transform="matrix(0.35277777,0,0,-0.35277777,81.971747,64.297012)">
        <path
           d="m 0,0 c 0,-0.91 0.362,-2.083 1.472,-2.083 1.097,0 1.41,1.198 1.41,2.083 0,0.861 -0.3,2.045 -1.385,2.045 C 0.425,2.045 0,0.898 0,0 m -1.683,3.192 h 1.596 v -0.91 h 0.025 c 0.374,0.624 1.01,1.06 1.996,1.06 1.97,0 2.694,-1.571 2.694,-3.342 0,-1.758 -0.724,-3.38 -2.732,-3.38 -0.71,0 -1.296,0.175 -1.883,0.886 h -0.025 v -3.355 h -1.671 z"
           style="fill:#4f4c4d;fill-opacity:1;fill-rule:nonzero;stroke:none"
           id="path320" />
      </g>
      <g
         id="g322"
         transform="matrix(0.35277777,0,0,-0.35277777,84.858033,65.0582)">
        <path
           d="M 0,0 C 0.512,0 0.91,0.225 1.173,0.574 1.446,0.936 1.521,1.397 1.521,1.896 H 0.798 C 0.05,1.896 -1.06,1.771 -1.06,0.786 -1.06,0.237 -0.599,0 0,0 M -1.958,5.014 C -1.31,5.313 -0.437,5.5 0.274,5.5 2.232,5.5 3.044,4.689 3.044,2.794 V 1.971 C 3.044,1.322 3.056,0.835 3.067,0.362 3.08,-0.125 3.105,-0.574 3.143,-1.073 H 1.671 C 1.609,-0.736 1.609,-0.312 1.597,-0.112 H 1.571 c -0.386,-0.711 -1.222,-1.11 -1.982,-1.11 -1.135,0 -2.245,0.686 -2.245,1.908 0,0.96 0.462,1.522 1.097,1.833 0.636,0.313 1.458,0.375 2.158,0.375 h 0.922 c 0,1.035 -0.461,1.384 -1.446,1.384 -0.711,0 -1.422,-0.275 -1.983,-0.698 z"
           style="fill:#4f4c4d;fill-opacity:1;fill-rule:nonzero;stroke:none"
           id="path324" />
      </g>
      <g
         id="g326"
         transform="matrix(0.35277777,0,0,-0.35277777,86.512385,63.170804)">
        <path
           d="m 0,0 h 1.584 v -0.873 h 0.024 c 0.525,0.736 1.236,1.023 2.109,1.023 1.521,0 2.182,-1.073 2.182,-2.519 v -4.054 h -1.67 v 3.43 c 0,0.786 -0.013,1.846 -1.085,1.846 -1.21,0 -1.473,-1.31 -1.473,-2.133 V -6.423 H 0 Z"
           style="fill:#4f4c4d;fill-opacity:1;fill-rule:nonzero;stroke:none"
           id="path328" />
      </g>
      <g
         id="g330"
         transform="matrix(0.35277777,0,0,-0.35277777,80.450393,38.327029)">
        <path
           d="m 0,0 h -25.282 v -2.259 h 7.585 v -50.027 c 0,-2.851 -2.529,-4.195 -4.842,-4.195 -2.314,0 -3.712,1.29 -4.357,1.99 l -6.886,4.895 c 0,-4.317 4.25,-9.253 10.812,-9.253 6.779,0 15.385,4.949 15.385,14.148 V -2.259 H 0 Z"
           style="fill:#4f4c4d;fill-opacity:1;fill-rule:nonzero;stroke:none"
           id="path332" />
      </g>
      <g
         id="g334"
         transform="matrix(0.35277777,0,0,-0.35277777,70.639431,58.188171)">
        <path
           d="m 0,0 c 3.487,0 6.314,2.827 6.314,6.314 0,3.487 -2.827,6.314 -6.314,6.314 -3.487,0 -6.314,-2.827 -6.314,-6.314 C -6.314,2.827 -3.487,0 0,0"
           style="fill:#da1745;fill-opacity:1;fill-rule:nonzero;stroke:none"
           id="path336" />
      </g>
      <g
         id="g338"
         transform="matrix(0.35277777,0,0,-0.35277777,56.862154,39.12406)">
        <path
           d="M 0,0 V 2.259 H -25.282 V 0 h 7.585 v -47.445 h -7.585 v -2.259 H 0 v 2.259 H -7.584 V 0 Z"
           style="fill:#4f4c4d;fill-opacity:1;fill-rule:nonzero;stroke:none"
           id="path340" />
      </g>
      <g
         id="g342"
         transform="matrix(0.35277777,0,0,-0.35277777,67.641173,39.12406)">
        <path
           d="M 0,0 V 2.259 H -25.282 V 0 h 7.584 v -47.445 h -7.584 v -2.259 H 0 v 2.259 H -7.585 V 0 Z"
           style="fill:#4f4c4d;fill-opacity:1;fill-rule:nonzero;stroke:none"
           id="path344" />
      </g>
    </g>
  </g>
</svg>
