<?xml version="1.0" standalone="no"?>
<!DOCTYPE svg PUBLIC "-//W3C//DTD SVG 20010904//EN"
 "http://www.w3.org/TR/2001/REC-SVG-20010904/DTD/svg10.dtd">
<svg version="1.0" xmlns="http://www.w3.org/2000/svg"
 width="509.000000pt" height="509.000000pt" viewBox="0 0 509.000000 509.000000"
 preserveAspectRatio="xMidYMid meet">
<metadata>
Created by potrace 1.14, written by Peter Selinger 2001-2017
</metadata>
<g transform="translate(0.000000,509.000000) scale(0.100000,-0.100000)"
fill="#000000" stroke="none">
<path d="M2425 4983 c-722 -35 -1404 -399 -1835 -978 -223 -299 -380 -657
-443 -1006 -55 -299 -55 -609 -1 -904 85 -466 324 -922 665 -1265 185 -187
379 -329 614 -451 144 -75 188 -94 350 -149 516 -177 1126 -164 1637 34 951
368 1568 1259 1570 2271 1 412 -81 758 -266 1122 -346 680 -1003 1164 -1756
1293 -111 19 -369 42 -440 38 -19 -1 -62 -3 -95 -5z m323 -504 c449 -49 854
-242 1172 -560 462 -462 662 -1129 529 -1769 -76 -369 -259 -707 -528 -977
-620 -623 -1578 -752 -2344 -315 -347 198 -653 536 -809 896 -45 103 -108 287
-108 316 0 19 11 20 297 22 l297 3 12 45 c7 28 14 39 17 30 4 -8 69 -256 145
-550 85 -326 142 -527 145 -515 4 11 117 445 252 964 135 519 246 945 248 947
1 1 134 -507 296 -1129 161 -623 296 -1135 300 -1139 3 -4 103 367 221 824
l215 830 160 -4 159 -5 21 -29 c11 -16 37 -46 58 -67 163 -161 446 -108 546
103 22 47 26 69 26 145 0 76 -4 98 -26 145 -103 217 -385 265 -556 93 l-48
-48 -300 0 -300 0 -85 -327 c-47 -180 -88 -324 -91 -320 -4 4 -138 513 -299
1132 -160 619 -293 1126 -295 1128 -5 5 1 26 -255 -958 -132 -509 -243 -933
-247 -942 -5 -12 -57 171 -147 520 -77 295 -141 541 -144 546 -3 5 -65 -220
-137 -500 -73 -280 -138 -528 -144 -552 l-12 -42 -192 2 -192 3 1 160 c2 412
134 795 390 1136 301 399 792 688 1270 748 49 6 100 13 114 15 57 8 277 5 368
-5z"/>
</g>
</svg>
