<svg xmlns="http://www.w3.org/2000/svg" viewBox="0 0 205 25.85"><style>.starOuter{fill:#f9ab00}.starCenter{fill:#e37400}.starGlyphs{fill:#fff}.text{fill:#1a2430}</style><g id="wrapper"><g id="Logo"><path class="starOuter" d="m10.68 21.82 3.68 3.68 3.69-3.68h5.2v-5.21l3.69-3.68-3.69-3.69V4H18L14.36.35l-1 1-1.89 1.89-.79.76H5.47v5.24l-3.68 3.69 2.89 2.89.79.79v5.21h5.21z"/><path class="starCenter" d="M21.63 12.93a7.27 7.27 0 1 1-7.27-7.27 7.26 7.26 0 0 1 7.27 7.25v.02z"/><path transform="rotate(-74.901 14.413 12.739)" class="starGlyphs" d="M10.974 12.229h6.88v1.02h-6.88z"/><path class="starGlyphs" d="m11.85 10.39.76.68-1.5 1.68 1.5 1.67-.76.68-2.11-2.36 2.11-2.35zM16.88 10.38 19 12.73l-2.11 2.35-.76-.68 1.5-1.67-1.5-1.67.75-.68z"/></g><g id="Summer_of_code"><path class="text" d="M91 18.33a3.835 3.835 0 0 1-1.33-1 4 4 0 0 1-.83-1.58l1.16-.47c.155.603.481 1.149.94 1.57.44.394 1.01.611 1.6.61a2.539 2.539 0 0 0 1.59-.5 1.64 1.64 0 0 0 .64-1.37 1.551 1.551 0 0 0-.55-1.23 5.09 5.09 0 0 0-1.78-.91l-.67-.24a5.216 5.216 0 0 1-1.86-1.06 2.33 2.33 0 0 1-.71-1.82c-.001-.5.141-.989.41-1.41a2.998 2.998 0 0 1 1.16-1 3.549 3.549 0 0 1 1.67-.39 3.71 3.71 0 0 1 1.62.34c.423.202.801.488 1.11.84.249.294.439.634.56 1l-1.18.51a2.05 2.05 0 0 0-2.08-1.52 2.254 2.254 0 0 0-1.41.46c-.367.277-.582.71-.58 1.17-.001.391.18.761.49 1 .455.329.962.579 1.5.74l.69.24a6.002 6.002 0 0 1 2.13 1.24 2.65 2.65 0 0 1 .76 2 2.759 2.759 0 0 1-.53 1.73 3.119 3.119 0 0 1-1.33 1 4.4 4.4 0 0 1-1.68.33 3.72 3.72 0 0 1-1.51-.28zM98.06 17.88a3.196 3.196 0 0 1-.71-2.2V11h1.28v4.45c0 1.37.61 2 1.83 2 .395.004.78-.119 1.1-.35.326-.223.585-.531.75-.89.171-.366.26-.766.26-1.17V11h1.26v7.41h-1.2v-1.09h-.06a2.681 2.681 0 0 1-1 1 2.8 2.8 0 0 1-1.43.39 2.7 2.7 0 0 1-2.08-.83zM105.69 11h1.21v1.1h.1c.24-.402.586-.731 1-.95a2.68 2.68 0 0 1 1.35-.39 2.636 2.636 0 0 1 1.45.39c.396.264.7.645.87 1.09.27-.44.64-.81 1.08-1.08a2.815 2.815 0 0 1 1.51-.4 2.369 2.369 0 0 1 2 .79 3.32 3.32 0 0 1 .66 2.18v4.68h-1.27V14a2.369 2.369 0 0 0-.41-1.56 1.582 1.582 0 0 0-1.26-.46 1.68 1.68 0 0 0-1 .34 2.28 2.28 0 0 0-.71.88 2.76 2.76 0 0 0-.25 1.17v4.11h-1.26V14a2.321 2.321 0 0 0-.41-1.56 1.612 1.612 0 0 0-1.26-.46c-.362 0-.713.119-1 .34a2.33 2.33 0 0 0-.7.9 2.78 2.78 0 0 0-.26 1.18v4.08h-1.27l-.17-7.48zM118.6 11h1.22v1.1h.06a2.46 2.46 0 0 1 1-.95c.41-.249.88-.384 1.36-.39a2.628 2.628 0 0 1 1.44.39c.396.264.7.645.87 1.09.27-.44.64-.81 1.08-1.08a2.815 2.815 0 0 1 1.51-.4 2.41 2.41 0 0 1 2 .79c.463.629.693 1.4.65 2.18v4.68h-1.27V14a2.321 2.321 0 0 0-.41-1.56 1.582 1.582 0 0 0-1.26-.46 1.629 1.629 0 0 0-1 .34 2.126 2.126 0 0 0-.71.88c-.171.366-.26.766-.26 1.17v4.11h-1.25V14a2.312 2.312 0 0 0-.42-1.56 1.612 1.612 0 0 0-1.26-.46c-.362 0-.713.119-1 .34a2.33 2.33 0 0 0-.7.9c-.169.37-.254.773-.25 1.18v4.08h-1.4V11zM132.9 18.16a3.562 3.562 0 0 1-1.32-1.4 4.27 4.27 0 0 1-.48-2 4.438 4.438 0 0 1 .45-2 3.439 3.439 0 0 1 3.18-2 3.639 3.639 0 0 1 1.89.48c.541.326.975.802 1.25 1.37.293.625.44 1.309.43 2 .014.099.014.201 0 .3h-5.89c.003.499.145.987.41 1.41.227.365.548.663.93.86.358.188.756.288 1.16.29a2.38 2.38 0 0 0 2.17-1.38l1.12.54a3.759 3.759 0 0 1-1.33 1.44 3.571 3.571 0 0 1-2 .55 3.633 3.633 0 0 1-1.97-.46zm4.1-4.26a2.369 2.369 0 0 0-.26-.9 1.999 1.999 0 0 0-.72-.76 2.379 2.379 0 0 0-1.28-.31 2.122 2.122 0 0 0-1.45.54 2.41 2.41 0 0 0-.78 1.43H137zM139.74 11H141v1.21a2 2 0 0 1 .85-1 2.33 2.33 0 0 1 2.16-.27v1.36a2.081 2.081 0 0 0-1-.23 1.751 1.751 0 0 0-1 .31 2.31 2.31 0 0 0-.73.82c-.178.34-.274.716-.28 1.1v4.13h-1.27l.01-7.43zM150.09 18.15a3.49 3.49 0 0 1-1.35-1.42 4.212 4.212 0 0 1-.49-2 4.273 4.273 0 0 1 .49-2 3.622 3.622 0 0 1 1.35-1.42 4 4 0 0 1 3.92 0 3.573 3.573 0 0 1 1.36 1.42c.329.615.497 1.303.49 2a4.104 4.104 0 0 1-.49 2 3.452 3.452 0 0 1-1.37 1.42 4 4 0 0 1-3.92 0h.01zm3.21-1c.4-.24.726-.586.94-1 .239-.456.359-.965.35-1.48a2.998 2.998 0 0 0-.35-1.47 2.618 2.618 0 0 0-.94-1 2.451 2.451 0 0 0-2.49 0 2.618 2.618 0 0 0-.94 1c-.24.452-.361.958-.35 1.47a3.072 3.072 0 0 0 .35 1.48c.214.414.54.76.94 1a2.388 2.388 0 0 0 2.49 0zM157.94 12.17h-1.39V11h1.39v-1a2.36 2.36 0 0 1 .32-1.26c.205-.35.503-.638.86-.83a2.614 2.614 0 0 1 1.22-.29c.203-.018.407-.018.61 0 .163.035.323.082.48.14V9a2.272 2.272 0 0 0-1-.24 1.15 1.15 0 0 0-.84.35 1.343 1.343 0 0 0-.34 1V11h1.91v1.15h-1.91v6.26h-1.27l-.04-6.24zM168.22 17.94a5.319 5.319 0 0 1-2-2 6 6 0 0 1 0-5.68 5.319 5.319 0 0 1 2-2 5.484 5.484 0 0 1 2.78-.77 5.134 5.134 0 0 1 2.2.46 4.905 4.905 0 0 1 1.71 1.29l-.89.88A3.864 3.864 0 0 0 172.71 9a4.07 4.07 0 0 0-1.71-.3 4.168 4.168 0 0 0-2.12.55c-.65.36-1.186.893-1.55 1.54a4.5 4.5 0 0 0-.58 2.29 4.5 4.5 0 0 0 .58 2.29c.364.647.9 1.18 1.55 1.54a4.29 4.29 0 0 0 5.44-1.05l.91.9a5.299 5.299 0 0 1-1.83 1.39 5.439 5.439 0 0 1-2.4.52 5.574 5.574 0 0 1-2.78-.73zM177.92 18.15a3.58 3.58 0 0 1-1.36-1.42 4.208 4.208 0 0 1-.48-2 4.255 4.255 0 0 1 .48-2 3.703 3.703 0 0 1 1.36-1.42 3.761 3.761 0 0 1 2-.51 3.829 3.829 0 0 1 2 .51 3.64 3.64 0 0 1 1.36 1.42c.324.617.492 1.303.49 2a4.212 4.212 0 0 1-.49 2 3.514 3.514 0 0 1-1.36 1.42 3.739 3.739 0 0 1-2 .52 3.67 3.67 0 0 1-2-.52zm3.21-1c.4-.237.722-.584.93-1 .242-.455.362-.965.35-1.48a2.931 2.931 0 0 0-.35-1.47 2.515 2.515 0 0 0-.93-1 2.47 2.47 0 0 0-2.5 0 2.585 2.585 0 0 0-.93 1c-.24.452-.361.958-.35 1.47a3.072 3.072 0 0 0 .35 1.48c.211.413.533.76.93 1a2.41 2.41 0 0 0 2.5 0zM186.46 18.16a3.718 3.718 0 0 1-1.28-1.41 4.511 4.511 0 0 1 0-4.05 3.718 3.718 0 0 1 1.28-1.41 3.254 3.254 0 0 1 1.77-.51 3.185 3.185 0 0 1 1.55.38c.412.222.757.55 1 .95h.06l-.06-1V7.73h1.26v10.7h-1.2v-1.11h-.06a2.681 2.681 0 0 1-1 1 3.258 3.258 0 0 1-3.32-.16zm3.18-1c.387-.243.699-.589.9-1a3.481 3.481 0 0 0 0-3 2.421 2.421 0 0 0-.9-1 2.264 2.264 0 0 0-1.22-.34 2.284 2.284 0 0 0-1.22.34c-.382.246-.69.592-.89 1a2.994 2.994 0 0 0-.34 1.47 3.08 3.08 0 0 0 .34 1.48c.196.411.504.758.89 1a2.3 2.3 0 0 0 1.22.35c.425.023.848-.074 1.22-.28v-.02zM195.24 18.16a3.625 3.625 0 0 1-1.32-1.4 4.27 4.27 0 0 1-.48-2 4.438 4.438 0 0 1 .45-2c.287-.585.73-1.08 1.28-1.43a3.485 3.485 0 0 1 1.9-.53 3.696 3.696 0 0 1 1.9.48c.538.326.969.802 1.24 1.37.296.625.447 1.309.44 2 .014.099.014.201 0 .3h-5.89c0 .498.139.986.4 1.41.228.368.553.666.94.86.355.187.749.287 1.15.29a2.38 2.38 0 0 0 2.17-1.38l1.12.54a3.8 3.8 0 0 1-1.32 1.44 3.614 3.614 0 0 1-2 .55 3.686 3.686 0 0 1-1.98-.5zm4.06-4.26a2.338 2.338 0 0 0-.25-.9 2.003 2.003 0 0 0-.73-.76 2.342 2.342 0 0 0-1.27-.31 2.101 2.101 0 0 0-1.45.54 2.41 2.41 0 0 0-.78 1.43h4.48z"/></g><g id="Google"><path class="text" d="M39.77 6.15h.44a6 6 0 0 1 4.1 1.73l-1.19 1.2a4.49 4.49 0 0 0-6.34.18 4.56 4.56 0 0 0-1.19 2.53 4.621 4.621 0 0 0 1 3.56 4.47 4.47 0 0 0 3.24 1.59 4.298 4.298 0 0 0 3.17-1.1 3.47 3.47 0 0 0 1.07-2.29H40v-1.71h5.8a5.882 5.882 0 0 1-1.53 5.21 5.682 5.682 0 0 1-3.52 1.58A6.47 6.47 0 0 1 37 17.9a6.364 6.364 0 0 1-3-3.37 6.192 6.192 0 0 1 0-4.14 6.392 6.392 0 0 1 2.28-3 6.584 6.584 0 0 1 3.49-1.24zM73 6.58h1.77v11.84H73V6.58zM49.72 10.68a4.239 4.239 0 0 1 3.19.68 3.91 3.91 0 0 1 1.56 2.49 4 4 0 0 1-3.11 4.74 4.507 4.507 0 0 1-1.1.07 4.079 4.079 0 0 1-3-1.62 4.13 4.13 0 0 1-.54-3.76 3.999 3.999 0 0 1 3-2.6m.28 1.58c-.454.121-.859.38-1.16.74a2.63 2.63 0 0 0 .13 3.42 2.22 2.22 0 0 0 3.52-.52 2.62 2.62 0 0 0-.49-3.12 2.23 2.23 0 0 0-2-.52zM58.51 10.68a4 4 0 0 1 3.94 6.49 4.09 4.09 0 0 1-5.757.561l-.013-.011a4 4 0 0 1-1.17-4.52 3.94 3.94 0 0 1 3-2.52m.25 1.58a2.27 2.27 0 0 0-1.16.74 2.63 2.63 0 0 0 .09 3.39 2.21 2.21 0 0 0 2 .65 2.23 2.23 0 0 0 1.54-1.13 2.649 2.649 0 0 0-.46-3.13 2.21 2.21 0 0 0-2-.51l-.01-.01zM66 11.16a3.39 3.39 0 0 1 3.25-.24c.319.152.607.363.85.62v-.69h1.68v7.31a4.352 4.352 0 0 1-1.09 3.07 3.94 3.94 0 0 1-3.4 1 3.85 3.85 0 0 1-2.91-2.31c.5-.24 1-.43 1.54-.65a2.278 2.278 0 0 0 1.61 1.39 2.149 2.149 0 0 0 2.04-.66 3.359 3.359 0 0 0 .49-2.26 3 3 0 0 1-1.36.83 3.63 3.63 0 0 1-3.3-.85 4.08 4.08 0 0 1-.422-5.755L65 11.94c.269-.299.578-.558.92-.77m1.72 1.06c-.509.087-.97.353-1.3.75a2.63 2.63 0 0 0 0 3.32 2.19 2.19 0 0 0 1.87.77A2.101 2.101 0 0 0 69.83 16a2.79 2.79 0 0 0-.28-3.13 1.999 1.999 0 0 0-1.87-.65l-.04.01zM76.91 11.59a3.769 3.769 0 0 1 3.81-.76 4.29 4.29 0 0 1 2.37 2.8l-5.39 2.23c.231.488.638.871 1.14 1.07a2.29 2.29 0 0 0 2.16-.31c.231-.189.436-.408.61-.65.46.3.92.6 1.37.91A4.06 4.06 0 0 1 77.37 18a4.12 4.12 0 0 1-.77-.68 4.25 4.25 0 0 1 .31-5.69m.89 1.53a2.371 2.371 0 0 0-.39 1.39L81 13a1.491 1.491 0 0 0-1.16-.82 2.13 2.13 0 0 0-2 .93l-.04.05z"/></g></g></svg>
