<?xml version="1.0" encoding="UTF-8" standalone="no"?>
<!-- Created with Inkscape (http://www.inkscape.org/) -->

<svg
   width="107.547mm"
   height="21.826mm"
   viewBox="0 0 107.54698 21.826"
   version="1.1"
   id="svg2232"
   xmlns="http://www.w3.org/2000/svg"
   xmlns:svg="http://www.w3.org/2000/svg">
  <defs
     id="defs2229" />
  <g
     id="layer1"
     transform="translate(-27.363576,-46.799396)">
    <g
       id="g348"
       transform="translate(6.236382,6.2362521)">
      <path
         fill-rule="nonzero"
         fill="#4f4c4c"
         fill-opacity="1"
         d="m 48.655952,43.68127 h -6.697264 v 0.599448 h 2.009179 v 13.251215 c 0,0.756542 -0.669727,1.112075 -1.282954,1.112075 -0.611847,0 -0.983918,-0.341753 -1.154797,-0.527787 l -1.823141,-1.295358 c 0,1.142393 1.125855,2.450155 2.86356,2.450155 1.795586,0 4.076238,-1.310517 4.076238,-3.748264 V 44.280718 h 2.009179 z m 0,0"
         id="path1064"
         style="stroke-width:0.352778" />
      <path
         fill-rule="nonzero"
         fill="#db1645"
         fill-opacity="1"
         d="m 41.287581,58.595776 c 0.924666,0 1.67294,-0.749653 1.67294,-1.672935 0,-0.923287 -0.748274,-1.671564 -1.67294,-1.671564 -0.923283,0 -1.671559,0.748277 -1.671559,1.671564 0,0.923282 0.748276,1.672935 1.671559,1.672935"
         id="path1066"
         style="stroke-width:0.352778" />
      <path
         fill-rule="nonzero"
         fill="#4f4c4c"
         fill-opacity="1"
         d="M 30.942652,44.280718 V 43.68127 h -6.697267 v 0.599448 h 2.009179 v 12.567708 h -2.009179 v 0.598067 h 6.697267 V 56.848426 H 28.93347 V 44.280718 Z m 0,0"
         id="path1068"
         style="stroke-width:0.352778" />
      <path
         fill-rule="nonzero"
         fill="#4f4c4c"
         fill-opacity="1"
         d="M 39.037247,44.280718 V 43.68127 H 32.33998 v 0.599448 h 2.009182 V 56.848426 H 32.33998 v 0.598067 h 6.697267 V 56.848426 H 37.028069 V 44.280718 Z m 0,0"
         id="path1070"
         style="stroke-width:0.352778" />
      <path
         fill-rule="nonzero"
         fill="#4f4c4c"
         fill-opacity="1"
         d="m 52.309132,49.25819 h 0.924665 v 4.610918 h -0.924665 z m 0,0"
         id="path1072"
         style="stroke-width:0.352778" />
      <path
         fill-rule="nonzero"
         fill="#4f4c4c"
         fill-opacity="1"
         d="m 54.14468,50.466729 h 0.839223 v 0.46302 h 0.01242 c 0.278363,-0.389981 0.654569,-0.541566 1.117589,-0.541566 0.804775,0 1.154797,0.56775 1.154797,1.333941 v 2.146984 h -0.884703 v -1.816255 c 0,-0.416169 -0.0069,-0.978408 -0.57464,-0.978408 -0.640789,0 -0.778591,0.694531 -0.778591,1.129993 v 1.66467 h -0.886079 z m 0,0"
         id="path1074"
         style="stroke-width:0.352778" />
      <path
         fill-rule="nonzero"
         fill="#4f4c4c"
         fill-opacity="1"
         d="m 58.471718,51.114407 h -0.653189 v -0.647678 h 0.653189 v -0.679373 l 0.8847,-0.283873 v 0.963246 h 0.78686 v 0.647678 h -0.78686 v 1.586125 c 0,0.289387 0.07993,0.56086 0.416168,0.56086 0.159854,0 0.31006,-0.03305 0.402389,-0.09233 l 0.02755,0.700045 c -0.186034,0.05236 -0.389985,0.07855 -0.654568,0.07855 -0.693152,0 -1.076248,-0.428569 -1.076248,-1.102431 z m 0,0"
         id="path1076"
         style="stroke-width:0.352778" />
      <path
         fill-rule="nonzero"
         fill="#4f4c4c"
         fill-opacity="1"
         d="m 62.884196,51.835122 c -0.02618,-0.429948 -0.224618,-0.799261 -0.720711,-0.799261 -0.494718,0 -0.745522,0.34313 -0.785485,0.799261 z m 0.593936,1.842438 c -0.32246,0.177765 -0.693155,0.270094 -1.169956,0.270094 -1.121724,0 -1.776289,-0.6463 -1.776289,-1.76251 0,-0.983918 0.522274,-1.796961 1.579231,-1.796961 1.262282,0 1.617818,0.865406 1.617818,2.054655 H 61.378 c 0.03996,0.547081 0.423058,0.858516 0.970139,0.858516 0.429948,0 0.799264,-0.158474 1.129993,-0.344508 z m 0,0"
         id="path1078"
         style="stroke-width:0.352778" />
      <path
         fill-rule="nonzero"
         fill="#4f4c4c"
         fill-opacity="1"
         d="m 64.442757,50.466729 h 0.78686 v 0.77308 h 0.01379 c 0.03859,-0.316949 0.402389,-0.851626 0.930176,-0.851626 0.08544,0 0.179148,0 0.271473,0.02618 v 0.891589 c -0.07993,-0.04548 -0.2384,-0.07303 -0.396875,-0.07303 -0.719335,0 -0.719335,0.898479 -0.719335,1.387683 v 1.248505 h -0.886079 z m 0,0"
         id="path1080"
         style="stroke-width:0.352778" />
      <path
         fill-rule="nonzero"
         fill="#4f4c4c"
         fill-opacity="1"
         d="m 66.993506,50.466729 h 0.837847 v 0.46302 h 0.01379 c 0.278366,-0.389981 0.654569,-0.541566 1.116214,-0.541566 0.80615,0 1.156172,0.56775 1.156172,1.333941 v 2.146984 H 69.23283 v -1.816255 c 0,-0.416169 -0.0069,-0.978408 -0.574644,-0.978408 -0.640785,0 -0.77997,0.694531 -0.77997,1.129993 v 1.66467 h -0.8847 z m 0,0"
         id="path1082"
         style="stroke-width:0.352778" />
      <path
         fill-rule="nonzero"
         fill="#4f4c4c"
         fill-opacity="1"
         d="m 73.162983,51.835122 c -0.02618,-0.429948 -0.224621,-0.799261 -0.720715,-0.799261 -0.494714,0 -0.745518,0.34313 -0.785481,0.799261 z m 0.593936,1.842438 c -0.323839,0.177765 -0.693155,0.270094 -1.168576,0.270094 -1.123103,0 -1.776293,-0.6463 -1.776293,-1.76251 0,-0.983918 0.520898,-1.796961 1.577855,-1.796961 1.260906,0 1.617815,0.865406 1.617815,2.054655 h -2.350933 c 0.03996,0.547081 0.423059,0.858516 0.970139,0.858516 0.429948,0 0.799264,-0.158474 1.129993,-0.344508 z m 0,0"
         id="path1084"
         style="stroke-width:0.352778" />
      <path
         fill-rule="nonzero"
         fill="#4f4c4c"
         fill-opacity="1"
         d="m 74.993017,51.114407 h -0.654568 v -0.647678 h 0.654568 v -0.679373 l 0.884703,-0.283873 v 0.963246 h 0.785481 v 0.647678 H 75.87772 v 1.586125 c 0,0.289387 0.07855,0.56086 0.416165,0.56086 0.158475,0 0.31006,-0.03305 0.402389,-0.09233 l 0.02755,0.700045 c -0.186034,0.05236 -0.389985,0.07855 -0.654568,0.07855 -0.693152,0 -1.076248,-0.428569 -1.076248,-1.102431 z m 0,0"
         id="path1086"
         style="stroke-width:0.352778" />
      <path
         fill-rule="nonzero"
         fill="#4f4c4c"
         fill-opacity="1"
         d="m 79.107842,49.25819 h 0.924662 v 4.610918 h -0.924662 z m 0,0"
         id="path1088"
         style="stroke-width:0.352778" />
      <path
         fill-rule="nonzero"
         fill="#4f4c4c"
         fill-opacity="1"
         d="m 80.943387,50.466729 h 0.839227 v 0.46302 h 0.01238 c 0.278366,-0.389981 0.654569,-0.541566 1.116214,-0.541566 0.80615,0 1.156172,0.56775 1.156172,1.333941 v 2.146984 h -0.884699 v -1.816255 c 0,-0.416169 -0.0069,-0.978408 -0.574644,-0.978408 -0.640789,0 -0.77997,0.694531 -0.77997,1.129993 v 1.66467 h -0.8847 z m 0,0"
         id="path1090"
         style="stroke-width:0.352778" />
      <path
         fill-rule="nonzero"
         fill="#4f4c4c"
         fill-opacity="1"
         d="m 84.998952,49.000496 h 0.886079 v 0.846116 h -0.886079 z m 0,1.466233 h 0.886079 v 3.402379 h -0.886079 z m 0,0"
         id="path1092"
         style="stroke-width:0.352778" />
      <path
         fill-rule="nonzero"
         fill="#4f4c4c"
         fill-opacity="1"
         d="m 87.105974,51.114407 h -0.654569 v -0.647678 h 0.654569 v -0.679373 l 0.884699,-0.283873 v 0.963246 h 0.785485 v 0.647678 h -0.785485 v 1.586125 c 0,0.289387 0.07855,0.56086 0.416169,0.56086 0.158475,0 0.31006,-0.03305 0.402389,-0.09233 l 0.02618,0.700045 c -0.184655,0.05236 -0.388606,0.07855 -0.65319,0.07855 -0.693151,0 -1.076247,-0.428569 -1.076247,-1.102431 z m 0,0"
         id="path1094"
         style="stroke-width:0.352778" />
      <path
         fill-rule="nonzero"
         fill="#4f4c4c"
         fill-opacity="1"
         d="m 89.404543,49.000496 h 0.886076 v 0.846116 h -0.886076 z m 0,1.466233 h 0.886076 v 3.402379 h -0.886076 z m 0,0"
         id="path1096"
         style="stroke-width:0.352778" />
      <path
         fill-rule="nonzero"
         fill="#4f4c4c"
         fill-opacity="1"
         d="m 92.410044,53.301354 c 0.270094,0 0.480935,-0.119888 0.620116,-0.304546 0.144695,-0.191547 0.184658,-0.435461 0.184658,-0.700045 h -0.383095 c -0.395496,0 -0.983919,0.06615 -0.983919,0.588423 0,0.290767 0.243911,0.416168 0.56224,0.416168 M 91.37238,50.645876 c 0.343133,-0.158475 0.806153,-0.257693 1.182356,-0.257693 1.036284,0 1.466232,0.428568 1.466232,1.433159 v 0.435459 c 0,0.344512 0.0069,0.602202 0.01242,0.853006 0.0069,0.256314 0.02067,0.494718 0.03996,0.759301 h -0.778591 c -0.03306,-0.179148 -0.03306,-0.403768 -0.03996,-0.508497 h -0.01379 c -0.203951,0.376205 -0.646303,0.587043 -1.050067,0.587043 -0.600823,0 -1.187867,-0.362423 -1.187867,-1.010102 0,-0.508497 0.243911,-0.806153 0.580154,-0.971518 0.337619,-0.163985 0.773077,-0.197058 1.142393,-0.197058 h 0.489204 c 0,-0.54846 -0.243914,-0.733115 -0.766191,-0.733115 -0.376202,0 -0.752408,0.144692 -1.050064,0.369313 z m 0,0"
         id="path1098"
         style="stroke-width:0.352778" />
      <path
         fill-rule="nonzero"
         fill="#4f4c4c"
         fill-opacity="1"
         d="m 95.184034,51.114407 h -0.654568 v -0.647678 h 0.654568 v -0.679373 l 0.8847,-0.283873 v 0.963246 h 0.78686 v 0.647678 h -0.78686 v 1.586125 c 0,0.289387 0.07992,0.56086 0.416168,0.56086 0.158475,0 0.310057,-0.03305 0.402386,-0.09233 l 0.02618,0.700045 c -0.183279,0.05236 -0.388606,0.07855 -0.653189,0.07855 -0.693152,0 -1.076248,-0.428569 -1.076248,-1.102431 z m 0,0"
         id="path1100"
         style="stroke-width:0.352778" />
      <path
         fill-rule="nonzero"
         fill="#4f4c4c"
         fill-opacity="1"
         d="m 97.4826,49.000496 h 0.884703 v 0.846116 H 97.4826 Z m 0,1.466233 h 0.884703 v 3.402379 H 97.4826 Z m 0,0"
         id="path1102"
         style="stroke-width:0.352778" />
      <path
         fill-rule="nonzero"
         fill="#4f4c4c"
         fill-opacity="1"
         d="m 98.921274,50.466729 h 0.952225 l 0.846111,2.477713 h 0.0124 l 0.81855,-2.477713 h 0.88608 l -1.25539,3.402379 h -0.9977 z m 0,0"
         id="path1104"
         style="stroke-width:0.352778" />
      <path
         fill-rule="nonzero"
         fill="#4f4c4c"
         fill-opacity="1"
         d="m 105.10591,51.835122 c -0.0275,-0.429948 -0.226,-0.799261 -0.72072,-0.799261 -0.49471,0 -0.74689,0.34313 -0.78686,0.799261 z m 0.59393,1.842438 c -0.32384,0.177765 -0.69315,0.270094 -1.16995,0.270094 -1.12172,0 -1.77629,-0.6463 -1.77629,-1.76251 0,-0.983918 0.52227,-1.796961 1.57923,-1.796961 1.2609,0 1.61782,0.865406 1.61782,2.054655 h -2.35232 c 0.04,0.547081 0.42444,0.858516 0.97152,0.858516 0.42995,0 0.79926,-0.158474 1.12999,-0.344508 z m 0,0"
         id="path1106"
         style="stroke-width:0.352778" />
      <path
         fill-rule="nonzero"
         fill="#4f4c4c"
         fill-opacity="1"
         d="m 108.17067,53.062954 c 0.12402,0.04685 0.25631,0.07993 0.44234,0.07993 0.60083,0 0.60083,-0.48369 0.60083,-0.813044 v -3.07165 h 0.92466 v 3.513998 c 0,0.489204 -0.31694,1.175466 -1.26228,1.175466 -0.2508,0 -0.44924,-0.0193 -0.70555,-0.08544 z m 0,0"
         id="path1108"
         style="stroke-width:0.352778" />
      <path
         fill-rule="nonzero"
         fill="#4f4c4c"
         fill-opacity="1"
         d="m 112.23863,53.301354 c 0.27148,0 0.48232,-0.119888 0.6215,-0.304546 0.14469,-0.191547 0.18465,-0.435461 0.18465,-0.700045 h -0.38309 c -0.39687,0 -0.98392,0.06615 -0.98392,0.588423 0,0.290767 0.24391,0.416168 0.56086,0.416168 m -1.03628,-2.655478 c 0.34313,-0.158475 0.80477,-0.257693 1.18236,-0.257693 1.03628,0 1.46485,0.428568 1.46485,1.433159 v 0.435459 c 0,0.344512 0.008,0.602202 0.0138,0.853006 0.007,0.256314 0.0207,0.494718 0.04,0.759301 h -0.7786 c -0.0345,-0.179148 -0.0345,-0.403768 -0.04,-0.508497 h -0.0138 c -0.20395,0.376205 -0.64768,0.587043 -1.05007,0.587043 -0.60082,0 -1.18787,-0.362423 -1.18787,-1.010102 0,-0.508497 0.24392,-0.806153 0.58016,-0.971518 0.33624,-0.163985 0.77308,-0.197058 1.14239,-0.197058 h 0.4892 c 0,-0.54846 -0.24391,-0.733115 -0.76618,-0.733115 -0.37621,0 -0.75241,0.144692 -1.05007,0.369313 z m 0,0"
         id="path1110"
         style="stroke-width:0.352778" />
      <path
         fill-rule="nonzero"
         fill="#4f4c4c"
         fill-opacity="1"
         d="m 115.61483,52.157582 c 0,0.482314 0.19154,1.10381 0.77997,1.10381 0.58015,0 0.74552,-0.6339 0.74552,-1.10381 0,-0.454752 -0.15848,-1.083137 -0.73312,-1.083137 -0.56775,0 -0.79237,0.607716 -0.79237,1.083137 m -0.89159,-1.690853 h 0.84473 v 0.483693 h 0.0138 c 0.19844,-0.330729 0.53468,-0.562239 1.05695,-0.562239 1.04318,0 1.42627,0.832333 1.42627,1.769399 0,0.931555 -0.38309,1.790072 -1.44556,1.790072 -0.37758,0 -0.68764,-0.09233 -0.9977,-0.468531 h -0.0138 v 1.776289 h -0.8847 z m 0,0"
         id="path1112"
         style="stroke-width:0.352778" />
      <path
         fill-rule="nonzero"
         fill="#4f4c4c"
         fill-opacity="1"
         d="m 119.94738,53.301354 c 0.27147,0 0.48231,-0.119888 0.62149,-0.304546 0.14608,-0.191547 0.18466,-0.435461 0.18466,-0.700045 h -0.38309 c -0.39688,0 -0.98392,0.06615 -0.98392,0.588423 0,0.290767 0.24391,0.416168 0.56086,0.416168 m -1.03629,-2.655478 c 0.34314,-0.158475 0.80616,-0.257693 1.18236,-0.257693 1.03766,0 1.46623,0.428568 1.46623,1.433159 v 0.435459 c 0,0.344512 0.007,0.602202 0.0138,0.853006 0.005,0.256314 0.0193,0.494718 0.0386,0.759301 h -0.77859 c -0.0345,-0.179148 -0.0345,-0.403768 -0.04,-0.508497 h -0.0138 c -0.20395,0.376205 -0.6463,0.587043 -1.05007,0.587043 -0.60082,0 -1.18786,-0.362423 -1.18786,-1.010102 0,-0.508497 0.24391,-0.806153 0.58015,-0.971518 0.33762,-0.163985 0.77308,-0.197058 1.1424,-0.197058 h 0.4892 c 0,-0.54846 -0.24391,-0.733115 -0.76619,-0.733115 -0.3762,0 -0.75241,0.144692 -1.05007,0.369313 z m 0,0"
         id="path1114"
         style="stroke-width:0.352778" />
      <path
         fill-rule="nonzero"
         fill="#4f4c4c"
         fill-opacity="1"
         d="m 122.43198,50.466729 h 0.83923 v 0.46302 h 0.0124 c 0.27699,-0.389981 0.65457,-0.541566 1.11621,-0.541566 0.80616,0 1.15618,0.56775 1.15618,1.333941 v 2.146984 h -0.8847 v -1.816255 c 0,-0.416169 -0.007,-0.978408 -0.57465,-0.978408 -0.64078,0 -0.77997,0.694531 -0.77997,1.129993 v 1.66467 H 122.432 Z m 0,0"
         id="path1116"
         style="stroke-width:0.352778" />
    </g>
  </g>
</svg>
